<svg width="300" height="300" viewBox="0 0 300 300" fill="none" xmlns="http://www.w3.org/2000/svg">
<g clip-path="url(#clip0_2_26)">
<rect width="300" height="300" rx="10" fill="#7DD3FC"/>
<g filter="url(#filter0_d_2_26)">
<path d="M0 10C0 4.47716 4.47715 0 10 0H100L48 53.5L0 100V10Z" fill="#FCD34D"/>
</g>
<rect x="114" y="23" width="170" height="20" rx="10" fill="#082F49" fill-opacity="0.3"/>
<rect x="24" y="150" width="152" height="20" rx="10" fill="#082F49" fill-opacity="0.3"/>
<rect x="24" y="214" width="81" height="20" rx="10" fill="#082F49" fill-opacity="0.3"/>
<rect x="44" y="83" width="210" height="20" rx="10" fill="#082F49" fill-opacity="0.3"/>
<rect x="64" y="53" width="90" height="20" rx="10" fill="#082F49" fill-opacity="0.3"/>
<rect x="55" y="113" width="90" height="20" rx="10" fill="#082F49" fill-opacity="0.3"/>
<rect x="187" y="113" width="97" height="20" rx="10" fill="#082F49" fill-opacity="0.3"/>
<rect x="24" y="244" width="40" height="20" rx="10" fill="#082F49" fill-opacity="0.3"/>
<rect x="106" y="244" width="40" height="20" rx="10" fill="#082F49" fill-opacity="0.3"/>
<rect x="55" y="184" width="97" height="20" rx="10" fill="#082F49" fill-opacity="0.3"/>
<rect x="194" y="53" width="90" height="20" rx="10" fill="#082F49" fill-opacity="0.3"/>
<rect x="85" y="23" width="20" height="20" rx="10" fill="#082F49" fill-opacity="0.3"/>
<rect x="164" y="53" width="20" height="20" rx="10" fill="#082F49" fill-opacity="0.3"/>
<rect x="264" y="83" width="20" height="20" rx="10" fill="#082F49" fill-opacity="0.3"/>
<rect x="156" y="113" width="20" height="20" rx="10" fill="#082F49" fill-opacity="0.3"/>
<rect x="114" y="214" width="20" height="20" rx="10" fill="#082F49" fill-opacity="0.3"/>
<rect x="75" y="244" width="20" height="20" rx="10" fill="#082F49" fill-opacity="0.3"/>
<rect x="24" y="184" width="20" height="20" rx="10" fill="#082F49" fill-opacity="0.3"/>
<rect x="24" y="113" width="20" height="20" rx="10" fill="#082F49" fill-opacity="0.3"/>
<path d="M253.586 179.935L180.433 253.269L176 264L186.731 259.567L260.064 186.413L253.586 179.935ZM268.223 165.3L265.053 168.467L271.532 174.945L274.701 171.776C275.533 170.944 276 169.815 276 168.639C276 167.462 275.533 166.334 274.701 165.502L274.5 165.3C274.088 164.888 273.598 164.561 273.06 164.338C272.521 164.115 271.944 164 271.361 164C270.778 164 270.201 164.115 269.663 164.338C269.124 164.561 268.635 164.888 268.223 165.3Z" stroke="#082F49" stroke-width="10" stroke-linecap="round" stroke-linejoin="round"/>
<path d="M203.319 229.372L209.49 235.543L208.363 236.67L201.794 235.471L201.749 235.516L205.633 239.4L204.328 240.705L198.157 234.534L199.302 233.389L205.847 234.606L205.901 234.552L202.02 230.671L203.319 229.372ZM212.725 232.488C212.257 232.956 211.753 233.262 211.213 233.404C210.672 233.543 210.131 233.526 209.589 233.353C209.044 233.178 208.535 232.854 208.061 232.38C207.583 231.902 207.257 231.392 207.085 230.849C206.91 230.305 206.893 229.763 207.033 229.225C207.174 228.683 207.478 228.177 207.946 227.709C208.414 227.241 208.919 226.938 209.459 226.799C209.999 226.657 210.542 226.673 211.086 226.848C211.629 227.02 212.139 227.346 212.617 227.824C213.091 228.298 213.415 228.807 213.59 229.352C213.763 229.894 213.779 230.436 213.638 230.979C213.498 231.517 213.193 232.02 212.725 232.488ZM211.737 231.488C211.95 231.275 212.067 231.037 212.09 230.774C212.11 230.509 212.05 230.235 211.912 229.951C211.775 229.666 211.572 229.389 211.303 229.12C211.034 228.85 210.757 228.648 210.471 228.511C210.188 228.372 209.914 228.313 209.649 228.333C209.384 228.353 209.145 228.47 208.932 228.683C208.717 228.898 208.597 229.14 208.573 229.409C208.551 229.676 208.608 229.952 208.745 230.238C208.883 230.521 209.087 230.797 209.357 231.066C209.626 231.335 209.902 231.539 210.185 231.678C210.47 231.814 210.747 231.872 211.014 231.85C211.281 231.823 211.522 231.703 211.737 231.488ZM213.581 222.195L214.545 223.159L211.758 225.947L210.794 224.982L213.581 222.195ZM210.318 223.241L211.601 221.957L215.916 226.272C216.035 226.391 216.145 226.465 216.248 226.495C216.348 226.523 216.444 226.518 216.534 226.48C216.627 226.44 216.716 226.377 216.802 226.29C216.863 226.23 216.918 226.165 216.968 226.094C217.016 226.022 217.053 225.967 217.08 225.929L218.237 226.682C218.192 226.766 218.125 226.88 218.035 227.022C217.946 227.167 217.822 227.326 217.661 227.498C217.364 227.82 217.051 228.05 216.724 228.189C216.399 228.325 216.072 228.358 215.745 228.288C215.417 228.218 215.103 228.03 214.802 227.724L210.318 223.241ZM221.196 224.018C220.72 224.494 220.213 224.808 219.677 224.958C219.141 225.105 218.602 225.093 218.062 224.922C217.519 224.749 217.004 224.419 216.516 223.931C216.04 223.455 215.715 222.944 215.54 222.4C215.365 221.856 215.345 221.315 215.479 220.779C215.616 220.241 215.911 219.744 216.365 219.29C216.671 218.985 217.004 218.75 217.366 218.585C217.727 218.417 218.104 218.331 218.496 218.329C218.889 218.325 219.289 218.416 219.695 218.6C220.099 218.783 220.498 219.071 220.891 219.465L221.244 219.818L217.336 223.726L216.54 222.93L219.24 220.231C219.055 220.046 218.851 219.922 218.628 219.86C218.405 219.798 218.182 219.798 217.959 219.86C217.736 219.918 217.531 220.041 217.345 220.228C217.15 220.422 217.022 220.64 216.962 220.881C216.902 221.118 216.905 221.354 216.971 221.59C217.035 221.823 217.158 222.031 217.339 222.216L218.095 222.973C218.324 223.202 218.564 223.357 218.815 223.44C219.068 223.52 219.318 223.527 219.565 223.461C219.813 223.394 220.044 223.254 220.258 223.039C220.401 222.896 220.512 222.746 220.59 222.587C220.668 222.428 220.709 222.267 220.713 222.102C220.717 221.937 220.683 221.774 220.611 221.614L221.877 220.505C222.102 220.85 222.227 221.223 222.253 221.623C222.279 222.018 222.205 222.422 222.03 222.834C221.855 223.242 221.577 223.637 221.196 224.018ZM225.803 222.701L219.439 216.337L220.704 215.072L221.482 215.849L221.539 215.792C221.471 215.611 221.426 215.403 221.404 215.168C221.381 214.929 221.414 214.68 221.5 214.421C221.586 214.158 221.759 213.897 222.018 213.638C222.356 213.3 222.755 213.077 223.217 212.969C223.677 212.858 224.17 212.894 224.694 213.077C225.216 213.258 225.743 213.613 226.273 214.144C226.789 214.66 227.142 215.179 227.331 215.702C227.519 216.22 227.563 216.713 227.46 217.181C227.358 217.645 227.131 218.053 226.779 218.405C226.53 218.654 226.277 218.824 226.02 218.917C225.765 219.007 225.52 219.045 225.285 219.031C225.048 219.015 224.836 218.972 224.649 218.902L224.61 218.941L227.086 221.418L225.803 222.701ZM223.01 217.395C223.285 217.67 223.563 217.872 223.844 218.001C224.125 218.129 224.396 218.179 224.655 218.148C224.912 218.116 225.144 217.997 225.351 217.79C225.56 217.581 225.679 217.347 225.709 217.088C225.738 216.827 225.686 216.556 225.556 216.277C225.425 215.994 225.225 215.718 224.956 215.449C224.689 215.181 224.417 214.984 224.14 214.855C223.862 214.726 223.594 214.677 223.335 214.707C223.076 214.737 222.841 214.858 222.63 215.069C222.421 215.278 222.299 215.51 222.265 215.765C222.233 216.018 222.28 216.284 222.407 216.563C222.533 216.843 222.734 217.12 223.01 217.395ZM230.844 214.364C230.549 214.659 230.234 214.871 229.901 215C229.565 215.126 229.229 215.155 228.891 215.087C228.554 215.015 228.233 214.826 227.927 214.52C227.67 214.263 227.501 214 227.421 213.731C227.341 213.462 227.329 213.193 227.385 212.923C227.441 212.654 227.545 212.389 227.698 212.128C227.853 211.865 228.034 211.608 228.241 211.357C228.482 211.059 228.672 210.816 228.813 210.627C228.952 210.437 229.033 210.279 229.057 210.154C229.081 210.03 229.044 209.918 228.946 209.82L228.928 209.802C228.737 209.611 228.529 209.524 228.304 209.54C228.081 209.554 227.86 209.67 227.641 209.889C227.41 210.12 227.277 210.355 227.243 210.594C227.207 210.831 227.243 211.048 227.352 211.245L226.068 212.336C225.847 211.994 225.722 211.633 225.694 211.251C225.664 210.867 225.734 210.481 225.902 210.091C226.071 209.697 226.34 209.316 226.71 208.946C226.967 208.689 227.243 208.473 227.538 208.298C227.836 208.121 228.139 208.005 228.448 207.949C228.76 207.89 229.068 207.907 229.374 208C229.677 208.09 229.966 208.273 230.241 208.548L233.363 211.67L232.146 212.887L231.504 212.245L231.468 212.282C231.538 212.501 231.566 212.728 231.552 212.963C231.536 213.196 231.472 213.431 231.359 213.668C231.245 213.903 231.073 214.135 230.844 214.364ZM230.326 213.11C230.515 212.921 230.644 212.718 230.714 212.499C230.783 212.278 230.794 212.062 230.748 211.851C230.701 211.64 230.597 211.453 230.434 211.29L229.943 210.799C229.929 210.865 229.898 210.945 229.85 211.037C229.801 211.126 229.743 211.222 229.675 211.326C229.605 211.429 229.533 211.53 229.461 211.631C229.387 211.729 229.319 211.819 229.259 211.899C229.13 212.072 229.034 212.238 228.97 212.399C228.905 212.56 228.883 212.713 228.903 212.857C228.922 213 228.991 213.131 229.111 213.252C229.286 213.427 229.483 213.497 229.702 213.463C229.921 213.425 230.129 213.307 230.326 213.11ZM236.14 209.044C235.788 209.395 235.379 209.623 234.913 209.728C234.447 209.828 233.954 209.785 233.434 209.598C232.914 209.408 232.395 209.054 231.879 208.538C231.349 208.007 230.993 207.481 230.812 206.959C230.63 206.434 230.592 205.943 230.701 205.485C230.809 205.023 231.033 204.622 231.373 204.283C231.632 204.024 231.892 203.852 232.153 203.768C232.414 203.679 232.663 203.647 232.901 203.671C233.138 203.691 233.346 203.736 233.527 203.804L233.566 203.765L231.246 201.445L232.527 200.164L238.698 206.335L237.432 207.601L236.691 206.859L236.637 206.914C236.705 207.102 236.747 207.315 236.763 207.552C236.78 207.785 236.741 208.03 236.649 208.288C236.559 208.543 236.389 208.795 236.14 209.044ZM235.525 207.616C235.732 207.409 235.85 207.178 235.881 206.923C235.911 206.663 235.862 206.393 235.733 206.112C235.606 205.829 235.406 205.55 235.13 205.274C234.855 204.999 234.578 204.798 234.299 204.672C234.019 204.545 233.752 204.499 233.497 204.533C233.242 204.567 233.011 204.688 232.804 204.895C232.593 205.106 232.473 205.341 232.443 205.6C232.412 205.859 232.462 206.127 232.59 206.404C232.719 206.682 232.917 206.954 233.184 207.221C233.453 207.49 233.728 207.691 234.009 207.824C234.291 207.952 234.561 208.003 234.82 207.977C235.079 207.947 235.314 207.827 235.525 207.616Z" fill="#FBBF24"/>
</g>
<defs>
<filter id="filter0_d_2_26" x="-4" y="0" width="108" height="108" filterUnits="userSpaceOnUse" color-interpolation-filters="sRGB">
<feFlood flood-opacity="0" result="BackgroundImageFix"/>
<feColorMatrix in="SourceAlpha" type="matrix" values="0 0 0 0 0 0 0 0 0 0 0 0 0 0 0 0 0 0 127 0" result="hardAlpha"/>
<feOffset dy="4"/>
<feGaussianBlur stdDeviation="2"/>
<feComposite in2="hardAlpha" operator="out"/>
<feColorMatrix type="matrix" values="0 0 0 0 0 0 0 0 0 0 0 0 0 0 0 0 0 0 0.25 0"/>
<feBlend mode="normal" in2="BackgroundImageFix" result="effect1_dropShadow_2_26"/>
<feBlend mode="normal" in="SourceGraphic" in2="effect1_dropShadow_2_26" result="shape"/>
</filter>
<clipPath id="clip0_2_26">
<rect width="300" height="300" fill="white"/>
</clipPath>
</defs>
</svg>
